<?xml version="1.0" encoding="UTF-8"?>
<svg width="20px" height="20px" viewBox="0 0 20 20" version="1.1" xmlns="http://www.w3.org/2000/svg" xmlns:xlink="http://www.w3.org/1999/xlink">
    <!-- Generator: Sketch 47.1 (45422) - http://www.bohemiancoding.com/sketch -->
    <title>16_h_vcontacte</title>
    <desc>Created with Sketch.</desc>
    <defs></defs>
    <g id="Page-1" stroke="none" stroke-width="1" fill="none" fill-rule="evenodd">
        <g id="00_icons" transform="translate(-690.000000, -355.000000)" fill="#1565C0">
            <g id="16_ico_h/iu_icon_vk16_h" transform="translate(690.000000, 355.000000)">
                <path d="M10,2 C14.4218182,2 18,5.57818182 18,10 C18,14.4218182 14.4218182,18 10,18 C5.57818182,18 2,14.4218182 2,10 C2,5.57818182 5.57818182,2 10,2 Z M10,3 C6.13090909,3 3,6.13090909 3,10 C3,13.8690909 6.13090909,17 10,17 C13.8690909,17 17,13.8690909 17,10 C17,6.13090909 13.8690909,3 10,3 Z" id="Combined-Shape" fill-rule="evenodd"></path>
                <path d="M14.9353552,12.160255 C14.9232605,12.1341894 14.9119854,12.1125683 14.9015118,12.0952459 C14.7282149,11.783133 14.3970492,11.4000364 13.9082149,10.945847 L13.8978871,10.9354463 L13.892714,10.9303461 L13.8874863,10.9251184 L13.8822404,10.9251184 C13.6603825,10.7136248 13.5198907,10.5714208 13.4610565,10.4986157 C13.3534062,10.3599271 13.3292896,10.2195446 13.3881239,10.0773042 C13.4296903,9.96983607 13.5858288,9.74287796 13.8561749,9.39612022 C13.9983789,9.21234973 14.1110018,9.06506375 14.1941712,8.95409836 C14.7940073,8.15664845 15.0540619,7.6470674 14.9742805,7.42515483 L14.9432969,7.3732969 C14.9224772,7.3420765 14.8687432,7.31351548 14.7821676,7.28746812 C14.6953916,7.26147541 14.5844809,7.25717668 14.449235,7.27449909 L12.9515301,7.28484517 C12.9272678,7.27624772 12.892623,7.27704918 12.8474863,7.28746812 C12.8024044,7.29788707 12.7798543,7.30311475 12.7798543,7.30311475 L12.7537887,7.31613843 L12.7330965,7.33178506 C12.7157559,7.34213115 12.6966849,7.36032787 12.6758652,7.3863388 C12.6551548,7.41225865 12.6378324,7.4426776 12.6239891,7.47734062 C12.460929,7.89684882 12.2755373,8.28688525 12.0674681,8.64743169 C11.9391803,8.86242259 11.8213661,9.04874317 11.7137705,9.20650273 C11.6063206,9.36420765 11.5161749,9.48040073 11.4434244,9.5548816 C11.3705647,9.62943534 11.3048087,9.68916211 11.2457559,9.73428051 C11.1867942,9.77941712 11.1417851,9.79848816 11.1106193,9.79151184 C11.0793807,9.78453552 11.0499636,9.77761384 11.0221129,9.77069217 C10.9736066,9.73947177 10.9345902,9.69701275 10.905173,9.64327869 C10.8756284,9.58954463 10.8557377,9.52191257 10.845337,9.44043716 C10.8349909,9.3589071 10.8288707,9.2887796 10.827122,9.22981785 C10.8255009,9.17092896 10.8262477,9.08763206 10.8297632,8.98016393 C10.8333698,8.87264117 10.8349909,8.79989071 10.8349909,8.76174863 C10.8349909,8.62998179 10.8375592,8.48697632 10.842714,8.33269581 C10.8479599,8.1784153 10.852204,8.05617486 10.8557559,7.96612022 C10.8592896,7.8759745 10.860929,7.78060109 10.860929,7.68005464 C10.860929,7.5795082 10.8548087,7.50065574 10.842714,7.44342441 C10.830765,7.38626594 10.8124226,7.33078324 10.7882514,7.27699454 C10.7639344,7.22326047 10.7283424,7.18169399 10.6816393,7.15218579 C10.6348452,7.12271403 10.5766667,7.09932605 10.5074317,7.081949 C10.3236612,7.0403643 10.0896539,7.01786885 9.80530055,7.01437158 C9.16047359,7.00744991 8.74613843,7.04908925 8.56238616,7.13923497 C8.48958106,7.1773224 8.42369763,7.22936248 8.36479053,7.29519126 C8.30236794,7.37149362 8.2936612,7.41313297 8.33872495,7.41998179 C8.54677596,7.45114754 8.69406193,7.52570128 8.78074681,7.64357013 L8.81198543,7.70602914 C8.83628415,7.7510929 8.86054645,7.83087432 8.88482696,7.94526412 C8.90907104,8.05965392 8.92471767,8.18619308 8.93160291,8.32480874 C8.9489071,8.57794171 8.9489071,8.79462659 8.93160291,8.9748816 C8.91424408,9.15520947 8.89785064,9.29559199 8.88220401,9.39613843 C8.86655738,9.49668488 8.8431694,9.57816029 8.81198543,9.64054645 C8.78074681,9.70295082 8.75996357,9.7410929 8.74954463,9.75493625 C8.7391439,9.7687796 8.73047359,9.77750455 8.72358834,9.78092896 C8.67852459,9.79819672 8.63165756,9.80699454 8.58315118,9.80699454 C8.53457195,9.80699454 8.47566485,9.78269581 8.4063388,9.73413479 C8.33703097,9.68557377 8.26510018,9.61887067 8.19054645,9.53391621 C8.11599271,9.44894353 8.03191257,9.33020036 7.93826958,9.17766849 C7.84469945,9.02513661 7.74761384,8.84486339 7.6470674,8.63684882 L7.56387978,8.48599271 C7.51187614,8.38894353 7.44083789,8.24763206 7.35069217,8.06218579 C7.2604918,7.87666667 7.18076503,7.69721311 7.11145719,7.52386157 C7.08375228,7.45105647 7.04213115,7.39562842 6.98666667,7.35748634 L6.96063752,7.34183971 C6.94333333,7.32799636 6.91555556,7.3132969 6.87744991,7.29763206 C6.83928962,7.28198543 6.79947177,7.27076503 6.75783242,7.26386157 L5.33289617,7.27420765 C5.18728597,7.27420765 5.08848816,7.3071949 5.0364663,7.37307832 L5.01564663,7.40424408 C5.0052459,7.42160291 5,7.44932605 5,7.48748634 C5,7.52562842 5.01040073,7.5724408 5.0312204,7.62786885 C5.23923497,8.11675774 5.46544627,8.58825137 5.70985428,9.04242259 C5.9542623,9.49659381 6.16664845,9.8624408 6.34688525,10.1396357 C6.52715847,10.417031 6.71091075,10.6788342 6.89814208,10.924918 C7.08537341,11.1710929 7.20930783,11.3288525 7.26994536,11.3981603 C7.33065574,11.4675956 7.37834244,11.5195082 7.41300546,11.5541712 L7.54304189,11.6789617 C7.62624772,11.7621858 7.74843352,11.8618579 7.90965392,11.9779781 C8.07091075,12.0941712 8.24943534,12.208561 8.44531876,12.3213297 C8.64123862,12.4339162 8.86916211,12.5257923 9.12921676,12.5968488 C9.38923497,12.6679781 9.6423133,12.6965209 9.88848816,12.6827505 L10.4865574,12.6827505 C10.6078506,12.6722769 10.699745,12.6341348 10.762204,12.568306 L10.7828962,12.5422404 C10.7968124,12.5215483 10.8098361,12.4893989 10.8218579,12.4461384 C10.8340255,12.4028051 10.8400729,12.3550638 10.8400729,12.303133 C10.8365209,12.1540801 10.8478689,12.019745 10.8738069,11.9001457 C10.8997268,11.7805829 10.9292714,11.6904372 10.9623133,11.6297268 C10.995337,11.569071 11.0326047,11.5178871 11.0740801,11.4763934 C11.1156466,11.4348087 11.1452641,11.4096175 11.1626412,11.4009472 C11.1799089,11.3922222 11.1936976,11.3863024 11.2040984,11.3827505 C11.2873042,11.3550273 11.3852277,11.3818761 11.4980146,11.4634244 C11.6107104,11.5448998 11.7164117,11.6455009 11.8152823,11.7650638 C11.9140984,11.8847359 12.0328233,12.0189982 12.1714754,12.168051 C12.3102186,12.3171585 12.4315301,12.4279964 12.5355009,12.5009107 L12.6394718,12.5633151 C12.7089071,12.6049545 12.7990528,12.6430965 12.9100182,12.6777596 C13.0207832,12.7124044 13.1178324,12.7210747 13.2011658,12.7037523 L14.5324408,12.6829872 C14.6641166,12.6829872 14.7665756,12.661184 14.8392532,12.6179235 C14.9120765,12.5745902 14.955337,12.5268488 14.9692896,12.474918 C14.9832058,12.4229326 14.9839526,12.3639526 14.9719308,12.2980146 C14.9595993,12.2322404 14.9474499,12.1862477 14.9353552,12.160255 Z" id="Shape" fill-rule="nonzero"></path>
            </g>
        </g>
    </g>
</svg>